<svg width="32" height="32" viewBox="0 0 32 32" fill="none" xmlns="http://www.w3.org/2000/svg">
<path d="M22.6666 11.5408C20.2 11.2963 17.7185 11.1704 15.2444 11.1704C13.7778 11.1704 12.3111 11.2445 10.8444 11.3926L9.33331 11.5408" stroke="#EB5757" stroke-width="1.2" stroke-linecap="round" stroke-linejoin="round"/>
<path d="M13.4074 10.7928L13.5704 9.8224C13.6889 9.1187 13.7778 8.59277 15.0296 8.59277H16.9704C18.2222 8.59277 18.3185 9.14833 18.4296 9.82981L18.5926 10.7928" stroke="#EB5757" stroke-width="1.2" stroke-linecap="round" stroke-linejoin="round"/>
<path d="M21.0741 13.8818L20.5926 21.3411C20.5111 22.5041 20.4444 23.4078 18.3778 23.4078H13.6222C11.5555 23.4078 11.4889 22.5041 11.4074 21.3411L10.9259 13.8818" stroke="#EB5757" stroke-width="1.2" stroke-linecap="round" stroke-linejoin="round"/>
<path d="M14.7629 19.3335H17.2296" stroke="#EB5757" stroke-width="1.2" stroke-linecap="round" stroke-linejoin="round"/>
<path d="M14.1481 16.3706H17.8518" stroke="#EB5757" stroke-width="1.2" stroke-linecap="round" stroke-linejoin="round"/>
<circle cx="16" cy="16" r="15.5" stroke="#BDBDBD"/>
</svg>
